<?xml version='1.0' encoding='utf-8'?>
<svg xmlns="http://www.w3.org/2000/svg" version="1.1" id="Layer_1" x="0px" y="0px" viewBox="592.2345 0 1125.0000 2000.0000" style="enable-background:new 0 0 2309.469 2000;" xml:space="preserve" width="1080" height="1920" preserveAspectRatio="xMidYMid meet">
<g>
	<polygon style="fill:#BFA07B;" points="2309.469,71.355 2268.272,0 2259.503,0 2305.084,78.949  " />
	<polygon style="fill:#BFA07B;" points="2307.867,89.319 2299.097,89.319 2257.897,160.679 2175.5,160.679 2171.113,168.277    2262.281,168.277  " />
	<polygon style="fill:#BFA07B;" points="2159.142,168.277 2154.755,160.679 2072.358,160.679 2031.158,89.319 2022.388,89.319    2067.974,168.277  " />
	<polygon style="fill:#BFA07B;" points="2025.171,78.949 2023.569,81.722 2026.771,81.722  " />
	<polygon style="fill:#BFA07B;" points="2166.73,160.679 2163.525,160.679 2165.127,163.454  " />
	<polygon style="fill:#BFA07B;" points="2303.484,81.722 2309.469,81.722 2309.469,71.355 2305.084,78.949  " />
	<polygon style="fill:#BFA07B;" points="2020.786,71.354 1979.589,0 1970.82,0 2016.4,78.949  " />
	<polygon style="fill:#BFA07B;" points="1736.487,78.949 1734.886,81.722 1738.088,81.722  " />
	<polygon style="fill:#BFA07B;" points="2019.183,89.319 2010.413,89.319 1969.213,160.679 1886.816,160.679 1882.43,168.277    1973.598,168.277  " />
	<polygon style="fill:#BFA07B;" points="1878.046,160.679 1874.842,160.679 1876.444,163.454  " />
	<polygon style="fill:#BFA07B;" points="1732.102,71.354 1690.905,0 1682.136,0 1727.717,78.949  " />
	<polygon style="fill:#BFA07B;" points="1870.458,168.277 1866.072,160.679 1783.674,160.679 1742.474,89.319 1733.704,89.319    1779.29,168.277  " />
	<polygon style="fill:#BFA07B;" points="2016.4,78.949 2014.8,81.722 2023.569,81.722 2025.171,78.949 2070.751,0 2061.982,0    2020.786,71.354  " />
	<polygon style="fill:#BFA07B;" points="1589.363,160.679 1586.158,160.679 1587.76,163.454  " />
	<polygon style="fill:#BFA07B;" points="1447.804,78.949 1446.202,81.722 1449.404,81.722  " />
	<polygon style="fill:#BFA07B;" points="1730.5,89.319 1721.73,89.319 1680.53,160.679 1598.132,160.679 1593.746,168.277    1684.914,168.277  " />
	<polygon style="fill:#BFA07B;" points="1443.418,71.354 1402.222,0 1393.453,0 1439.033,78.949  " />
	<polygon style="fill:#BFA07B;" points="1581.775,168.277 1577.388,160.679 1494.991,160.679 1453.791,89.319 1445.021,89.319    1490.606,168.277  " />
	<polygon style="fill:#BFA07B;" points="1727.717,78.949 1726.116,81.722 1734.886,81.722 1736.487,78.949 1782.068,0 1773.299,0    1732.102,71.354  " />
	<polygon style="fill:#BFA07B;" points="1293.091,168.277 1288.704,160.679 1206.307,160.679 1165.107,89.319 1156.337,89.319    1201.923,168.277  " />
	<polygon style="fill:#BFA07B;" points="1300.679,160.679 1297.474,160.679 1299.077,163.454  " />
	<polygon style="fill:#BFA07B;" points="1441.816,89.319 1433.046,89.319 1391.846,160.679 1309.449,160.679 1305.062,168.277    1396.23,168.277  " />
	<polygon style="fill:#BFA07B;" points="1154.735,71.354 1113.538,0 1104.769,0 1150.35,78.949  " />
	<polygon style="fill:#BFA07B;" points="1159.12,78.949 1157.519,81.722 1160.721,81.722  " />
	<polygon style="fill:#BFA07B;" points="1439.033,78.949 1437.433,81.722 1446.202,81.722 1447.804,78.949 1493.384,0 1484.615,0    1443.418,71.354  " />
	<polygon style="fill:#BFA07B;" points="870.436,78.949 868.835,81.722 872.037,81.722  " />
	<polygon style="fill:#BFA07B;" points="1153.132,89.319 1144.363,89.319 1103.162,160.679 1020.765,160.679 1016.379,168.277    1107.547,168.277  " />
	<polygon style="fill:#BFA07B;" points="1011.995,160.679 1008.791,160.679 1010.393,163.454  " />
	<polygon style="fill:#BFA07B;" points="866.051,71.354 824.854,0 816.085,0 861.666,78.949  " />
	<polygon style="fill:#BFA07B;" points="1004.407,168.277 1000.021,160.679 917.623,160.679 876.424,89.319 867.654,89.319    913.239,168.277  " />
	<polygon style="fill:#BFA07B;" points="1150.35,78.949 1148.749,81.722 1157.519,81.722 1159.12,78.949 1204.701,0 1195.932,0    1154.735,71.354  " />
	<polygon style="fill:#BFA07B;" points="723.312,160.679 720.107,160.679 721.709,163.454  " />
	<polygon style="fill:#BFA07B;" points="715.724,168.277 711.337,160.679 628.94,160.679 587.74,89.319 578.97,89.319    624.556,168.277  " />
	<polygon style="fill:#BFA07B;" points="577.368,71.354 536.171,0 527.402,0 572.982,78.949  " />
	<polygon style="fill:#BFA07B;" points="581.753,78.949 580.151,81.722 583.353,81.722  " />
	<polygon style="fill:#BFA07B;" points="864.449,89.319 855.679,89.319 814.479,160.679 732.082,160.679 727.695,168.277    818.863,168.277  " />
	<polygon style="fill:#BFA07B;" points="861.666,78.949 860.065,81.722 868.835,81.722 870.436,78.949 916.017,0 907.248,0    866.051,71.354  " />
	<polygon style="fill:#BFA07B;" points="288.684,71.354 247.487,0 238.718,0 284.299,78.949  " />
	<polygon style="fill:#BFA07B;" points="427.04,168.277 422.653,160.679 340.256,160.679 299.056,89.319 290.286,89.319    335.872,168.277  " />
	<polygon style="fill:#BFA07B;" points="293.069,78.949 291.468,81.722 294.67,81.722  " />
	<polygon style="fill:#BFA07B;" points="575.765,89.319 566.995,89.319 525.795,160.679 443.398,160.679 439.011,168.277    530.18,168.277  " />
	<polygon style="fill:#BFA07B;" points="434.628,160.679 431.423,160.679 433.026,163.454  " />
	<polygon style="fill:#BFA07B;" points="572.982,78.949 571.382,81.722 580.151,81.722 581.753,78.949 627.333,0 618.564,0    577.368,71.354  " />
	<polygon style="fill:#BFA07B;" points="287.082,89.319 278.312,89.319 237.112,160.679 154.714,160.679 150.328,168.277    241.496,168.277  " />
	<polygon style="fill:#BFA07B;" points="51.573,160.679 10.373,89.319 1.603,89.319 47.188,168.277 138.356,168.277 133.97,160.679     " />
	<polygon style="fill:#BFA07B;" points="145.945,160.679 142.74,160.679 144.342,163.454  " />
	<polygon style="fill:#BFA07B;" points="5.986,81.722 4.386,78.949 2.784,81.722  " />
	<polygon style="fill:#BFA07B;" points="284.299,78.949 282.698,81.722 291.468,81.722 293.069,78.949 338.65,0 329.881,0    288.684,71.354  " />
	<polygon style="fill:#BFA07B;" points="4.386,78.949 49.966,0 41.197,0 0,71.354 0,81.722 2.784,81.722  " />
	<polygon style="fill:#BFA07B;" points="2160.742,328.949 2165.127,321.354 2123.93,249.999 2165.127,178.644 2160.742,171.049    2115.161,249.999  " />
	<polygon style="fill:#BFA07B;" points="2309.469,413.455 2309.469,410.679 2307.866,410.679  " />
	<polygon style="fill:#BFA07B;" points="2303.482,418.276 2299.096,410.679 2216.7,410.679 2175.501,339.321 2166.731,339.321    2212.315,418.276  " />
	<polygon style="fill:#BFA07B;" points="2171.115,331.724 2169.513,328.949 2167.91,331.724  " />
	<polygon style="fill:#BFA07B;" points="2212.315,81.722 2166.73,160.679 2165.127,163.454 2169.513,171.049 2171.113,168.277    2175.5,160.679 2216.7,89.319 2309.469,89.319 2309.469,81.722  " />
	<polygon style="fill:#BFA07B;" points="2020.786,413.456 2022.389,410.679 2019.182,410.679  " />
	<polygon style="fill:#BFA07B;" points="1872.059,328.949 1876.444,321.354 1835.246,249.999 1876.444,178.644 1872.059,171.049    1826.478,249.999  " />
	<polygon style="fill:#BFA07B;" points="2163.524,339.321 2154.754,339.321 2113.555,410.679 2031.159,410.679 2026.773,418.276    2117.939,418.276  " />
	<polygon style="fill:#BFA07B;" points="2014.798,418.276 2010.412,410.679 1928.016,410.679 1886.817,339.321 1878.047,339.321    1923.632,418.276  " />
	<polygon style="fill:#BFA07B;" points="1880.829,328.949 1879.227,331.724 1882.431,331.724  " />
	<polygon style="fill:#BFA07B;" points="1880.829,171.049 1882.43,168.277 1886.816,160.679 1928.016,89.319 2113.555,89.319    2154.755,160.679 2159.142,168.277 2160.742,171.049 2165.127,178.644 2206.325,249.999 2165.127,321.354 2160.742,328.949    2159.14,331.724 2167.91,331.724 2169.513,328.949 2215.094,249.999 2169.513,171.049 2165.127,163.454 2163.525,160.679    2117.939,81.722 1923.632,81.722 1878.046,160.679 1876.444,163.454  " />
	<polygon style="fill:#BFA07B;" points="1726.115,418.276 1721.729,410.679 1639.333,410.679 1598.133,339.321 1589.363,339.321    1634.948,418.276  " />
	<polygon style="fill:#BFA07B;" points="1874.841,339.321 1866.071,339.321 1824.871,410.679 1742.475,410.679 1738.089,418.276    1829.256,418.276  " />
	<polygon style="fill:#BFA07B;" points="1583.375,328.949 1587.76,321.354 1546.563,249.999 1587.76,178.644 1583.375,171.049    1537.794,249.999  " />
	<polygon style="fill:#BFA07B;" points="1592.145,328.949 1590.543,331.724 1593.747,331.724  " />
	<polygon style="fill:#BFA07B;" points="1732.102,413.456 1733.705,410.679 1730.499,410.679  " />
	<polygon style="fill:#BFA07B;" points="1592.145,171.049 1593.746,168.277 1598.132,160.679 1639.333,89.319 1824.871,89.319    1866.072,160.679 1870.458,168.277 1872.059,171.049 1876.444,178.644 1917.641,249.999 1876.444,321.354 1872.059,328.949    1870.457,331.724 1879.227,331.724 1880.829,328.949 1926.41,249.999 1880.829,171.049 1876.444,163.454 1874.842,160.679    1829.256,81.722 1634.948,81.722 1589.363,160.679 1587.76,163.454  " />
	<polygon style="fill:#BFA07B;" points="1586.157,339.321 1577.387,339.321 1536.188,410.679 1453.792,410.679 1449.405,418.276    1540.572,418.276  " />
	<polygon style="fill:#BFA07B;" points="1303.462,328.949 1301.859,331.724 1305.064,331.724  " />
	<polygon style="fill:#BFA07B;" points="1294.691,328.949 1299.077,321.354 1257.879,249.999 1299.077,178.644 1294.691,171.049    1249.11,249.999  " />
	<polygon style="fill:#BFA07B;" points="1437.431,418.276 1433.045,410.679 1350.649,410.679 1309.45,339.321 1300.68,339.321    1346.265,418.276  " />
	<polygon style="fill:#BFA07B;" points="1441.815,410.679 1443.418,413.456 1445.022,410.679  " />
	<polygon style="fill:#BFA07B;" points="1303.462,171.049 1305.062,168.277 1309.449,160.679 1350.649,89.319 1536.188,89.319    1577.388,160.679 1581.775,168.277 1583.375,171.049 1587.76,178.644 1628.957,249.999 1587.76,321.354 1583.375,328.949    1581.773,331.724 1590.543,331.724 1592.145,328.949 1637.726,249.999 1592.145,171.049 1587.76,163.454 1586.158,160.679    1540.572,81.722 1346.265,81.722 1300.679,160.679 1299.077,163.454  " />
	<polygon style="fill:#BFA07B;" points="1153.132,410.679 1154.735,413.456 1156.338,410.679  " />
	<polygon style="fill:#BFA07B;" points="1148.748,418.276 1144.362,410.679 1061.965,410.679 1020.766,339.321 1011.996,339.321    1057.581,418.276  " />
	<polygon style="fill:#BFA07B;" points="1014.778,328.949 1013.176,331.724 1016.38,331.724  " />
	<polygon style="fill:#BFA07B;" points="1297.473,339.321 1288.703,339.321 1247.504,410.679 1165.108,410.679 1160.722,418.276    1251.889,418.276  " />
	<polygon style="fill:#BFA07B;" points="1006.008,328.949 1010.393,321.354 969.196,249.999 1010.393,178.644 1006.008,171.049    960.427,249.999  " />
	<polygon style="fill:#BFA07B;" points="1014.778,171.049 1016.379,168.277 1020.765,160.679 1061.965,89.319 1247.504,89.319    1288.704,160.679 1293.091,168.277 1294.691,171.049 1299.077,178.644 1340.274,249.999 1299.077,321.354 1294.691,328.949    1293.089,331.724 1301.859,331.724 1303.462,328.949 1349.043,249.999 1303.462,171.049 1299.077,163.454 1297.474,160.679    1251.889,81.722 1057.581,81.722 1011.995,160.679 1010.393,163.454  " />
	<polygon style="fill:#BFA07B;" points="726.095,328.949 724.492,331.724 727.696,331.724  " />
	<polygon style="fill:#BFA07B;" points="1008.79,339.321 1000.02,339.321 958.821,410.679 876.424,410.679 872.038,418.276    963.205,418.276  " />
	<polygon style="fill:#BFA07B;" points="860.064,418.276 855.678,410.679 773.282,410.679 732.083,339.321 723.313,339.321    768.897,418.276  " />
	<polygon style="fill:#BFA07B;" points="717.324,328.949 721.709,321.354 680.512,249.999 721.709,178.644 717.324,171.049    671.743,249.999  " />
	<polygon style="fill:#BFA07B;" points="864.448,410.679 866.051,413.456 867.654,410.679  " />
	<polygon style="fill:#BFA07B;" points="726.095,171.049 727.695,168.277 732.082,160.679 773.282,89.319 958.821,89.319    1000.021,160.679 1004.407,168.277 1006.008,171.049 1010.393,178.644 1051.59,249.999 1010.393,321.354 1006.008,328.949    1004.406,331.724 1013.176,331.724 1014.778,328.949 1060.359,249.999 1014.778,171.049 1010.393,163.454 1008.791,160.679    963.205,81.722 768.897,81.722 723.312,160.679 721.709,163.454  " />
	<polygon style="fill:#BFA07B;" points="428.641,328.949 433.026,321.354 391.829,249.999 433.026,178.644 428.641,171.049    383.059,249.999  " />
	<polygon style="fill:#BFA07B;" points="720.106,339.321 711.336,339.321 670.137,410.679 587.741,410.679 583.355,418.276    674.521,418.276  " />
	<polygon style="fill:#BFA07B;" points="437.411,328.949 435.809,331.724 439.013,331.724  " />
	<polygon style="fill:#BFA07B;" points="571.38,418.276 566.994,410.679 484.598,410.679 443.399,339.321 434.629,339.321    480.214,418.276  " />
	<polygon style="fill:#BFA07B;" points="575.764,410.679 577.368,413.456 578.971,410.679  " />
	<polygon style="fill:#BFA07B;" points="437.411,171.049 439.011,168.277 443.398,160.679 484.598,89.319 670.137,89.319    711.337,160.679 715.724,168.277 717.324,171.049 721.709,178.644 762.907,249.999 721.709,321.354 717.324,328.949    715.722,331.724 724.492,331.724 726.095,328.949 771.676,249.999 726.095,171.049 721.709,163.454 720.107,160.679    674.521,81.722 480.214,81.722 434.628,160.679 433.026,163.454  " />
	<polygon style="fill:#BFA07B;" points="431.423,339.321 422.653,339.321 381.453,410.679 299.057,410.679 294.671,418.276    385.838,418.276  " />
	<polygon style="fill:#BFA07B;" points="148.727,328.949 147.125,331.724 150.329,331.724  " />
	<polygon style="fill:#BFA07B;" points="103.145,249.999 144.342,178.644 139.957,171.049 94.376,249.999 139.957,328.949    144.342,321.354  " />
	<polygon style="fill:#BFA07B;" points="287.081,410.679 288.684,413.456 290.287,410.679  " />
	<polygon style="fill:#BFA07B;" points="195.914,410.679 154.715,339.321 145.945,339.321 191.53,418.276 282.697,418.276    278.311,410.679  " />
	<polygon style="fill:#BFA07B;" points="148.727,171.049 150.328,168.277 154.714,160.679 195.914,89.319 381.453,89.319    422.653,160.679 427.04,168.277 428.641,171.049 433.026,178.644 474.223,249.999 433.026,321.354 428.641,328.949    427.039,331.724 435.809,331.724 437.411,328.949 482.992,249.999 437.411,171.049 433.026,163.454 431.423,160.679    385.838,81.722 191.53,81.722 145.945,160.679 144.342,163.454  " />
	<polygon style="fill:#BFA07B;" points="92.77,410.679 10.374,410.679 5.987,418.276 97.154,418.276 142.739,339.321    133.969,339.321  " />
	<polygon style="fill:#BFA07B;" points="1.604,410.679 0,410.679 0,413.455  " />
	<polygon style="fill:#BFA07B;" points="92.77,89.319 133.97,160.679 138.356,168.277 139.957,171.049 144.342,178.644    185.539,249.999 144.342,321.354 139.957,328.949 138.355,331.724 147.125,331.724 148.727,328.949 194.308,249.999    148.727,171.049 144.342,163.454 142.74,160.679 97.154,81.722 0,81.722 0,89.319  " />
	<polygon style="fill:#BFA07B;" points="2259.503,500.001 2305.084,578.951 2309.469,571.356 2268.272,500.001 2309.469,428.647    2305.084,421.051  " />
	<polygon style="fill:#BFA07B;" points="2025.171,578.951 2023.569,581.723 2026.771,581.723  " />
	<polygon style="fill:#BFA07B;" points="2262.281,331.724 2067.974,331.724 2022.389,410.679 2020.786,413.456 2025.171,421.051    2026.773,418.276 2031.159,410.679 2072.358,339.321 2257.897,339.321 2299.096,410.679 2303.482,418.276 2305.084,421.051    2309.469,428.645 2309.469,413.455 2307.866,410.679  " />
	<polygon style="fill:#BFA07B;" points="2307.867,589.321 2299.097,589.321 2257.897,660.681 2175.5,660.681 2171.113,668.278    2262.281,668.278  " />
	<polygon style="fill:#BFA07B;" points="2159.142,668.278 2154.755,660.681 2072.358,660.681 2031.158,589.321 2022.388,589.321    2067.974,668.278  " />
	<polygon style="fill:#BFA07B;" points="2016.4,578.951 2020.786,571.356 1979.588,500.001 2020.786,428.646 2016.4,421.051    1970.819,500.001  " />
	<polygon style="fill:#BFA07B;" points="2303.484,581.723 2309.469,581.723 2309.469,571.356 2305.084,578.951  " />
	<polygon style="fill:#BFA07B;" points="2165.127,663.456 2166.73,660.681 2163.525,660.681  " />
	<polygon style="fill:#BFA07B;" points="1870.458,668.278 1866.072,660.681 1783.674,660.681 1742.474,589.321 1733.704,589.321    1779.29,668.278  " />
	<polygon style="fill:#BFA07B;" points="1727.717,578.951 1732.102,571.356 1690.905,500.001 1732.102,428.646 1727.717,421.051    1682.136,500.001  " />
	<polygon style="fill:#BFA07B;" points="1736.487,578.951 1734.886,581.723 1738.088,581.723  " />
	<polygon style="fill:#BFA07B;" points="1876.444,663.456 1878.046,660.681 1874.842,660.681  " />
	<polygon style="fill:#BFA07B;" points="2019.183,589.321 2010.413,589.321 1969.213,660.681 1886.816,660.681 1882.43,668.278    1973.598,668.278  " />
	<polygon style="fill:#BFA07B;" points="1973.598,331.724 1779.29,331.724 1733.705,410.679 1732.102,413.456 1736.487,421.051    1738.089,418.276 1742.475,410.679 1783.674,339.321 1969.213,339.321 2010.412,410.679 2014.798,418.276 2016.4,421.051    2020.786,428.646 2061.983,500.001 2020.786,571.356 2016.4,578.951 2014.8,581.723 2023.569,581.723 2025.171,578.951    2070.752,500.001 2025.171,421.051 2020.786,413.456 2019.182,410.679  " />
	<polygon style="fill:#BFA07B;" points="1447.804,578.951 1446.202,581.723 1449.404,581.723  " />
	<polygon style="fill:#BFA07B;" points="1439.033,578.951 1443.418,571.356 1402.221,500.001 1443.418,428.646 1439.033,421.051    1393.452,500.001  " />
	<polygon style="fill:#BFA07B;" points="1587.76,663.456 1589.363,660.681 1586.158,660.681  " />
	<polygon style="fill:#BFA07B;" points="1581.775,668.278 1577.388,660.681 1494.991,660.681 1453.791,589.321 1445.021,589.321    1490.606,668.278  " />
	<polygon style="fill:#BFA07B;" points="1730.5,589.321 1721.73,589.321 1680.53,660.681 1598.132,660.681 1593.746,668.278    1684.914,668.278  " />
	<polygon style="fill:#BFA07B;" points="1445.022,410.679 1443.418,413.456 1447.804,421.051 1449.405,418.276 1453.792,410.679    1494.991,339.321 1680.53,339.321 1721.729,410.679 1726.115,418.276 1727.717,421.051 1732.102,428.646 1773.299,500.001    1732.102,571.356 1727.717,578.951 1726.116,581.723 1734.886,581.723 1736.487,578.951 1782.068,500.001 1736.487,421.051    1732.102,413.456 1730.499,410.679 1684.914,331.724 1490.606,331.724  " />
	<polygon style="fill:#BFA07B;" points="1159.12,578.951 1157.519,581.723 1160.721,581.723  " />
	<polygon style="fill:#BFA07B;" points="1297.474,660.681 1299.077,663.456 1300.679,660.681  " />
	<polygon style="fill:#BFA07B;" points="1150.35,578.951 1154.735,571.356 1113.538,500.001 1154.735,428.646 1150.35,421.051    1104.769,500.001  " />
	<polygon style="fill:#BFA07B;" points="1156.338,410.679 1154.735,413.456 1159.12,421.051 1160.722,418.276 1165.108,410.679    1206.307,339.321 1391.846,339.321 1433.045,410.679 1437.431,418.276 1439.033,421.051 1443.418,428.646 1484.616,500.001    1443.418,571.356 1439.033,578.951 1437.433,581.723 1446.202,581.723 1447.804,578.951 1493.385,500.001 1447.804,421.051    1443.418,413.456 1441.815,410.679 1396.23,331.724 1201.923,331.724  " />
	<polygon style="fill:#BFA07B;" points="1441.816,589.321 1433.046,589.321 1391.846,660.681 1309.449,660.681 1305.062,668.278    1396.23,668.278  " />
	<polygon style="fill:#BFA07B;" points="1293.091,668.278 1288.704,660.681 1206.307,660.681 1165.107,589.321 1156.337,589.321    1201.923,668.278  " />
	<polygon style="fill:#BFA07B;" points="867.654,410.679 866.051,413.456 870.436,421.051 872.038,418.276 876.424,410.679    917.623,339.321 1103.162,339.321 1144.362,410.679 1148.748,418.276 1150.35,421.051 1154.735,428.646 1195.932,500.001    1154.735,571.356 1150.35,578.951 1148.749,581.723 1157.519,581.723 1159.12,578.951 1204.701,500.001 1159.12,421.051    1154.735,413.456 1153.132,410.679 1107.547,331.724 913.239,331.724  " />
	<polygon style="fill:#BFA07B;" points="1008.791,660.681 1010.393,663.456 1011.995,660.681  " />
	<polygon style="fill:#BFA07B;" points="1153.132,589.321 1144.363,589.321 1103.162,660.681 1020.765,660.681 1016.379,668.278    1107.547,668.278  " />
	<polygon style="fill:#BFA07B;" points="870.436,578.951 868.835,581.723 872.037,581.723  " />
	<polygon style="fill:#BFA07B;" points="1004.407,668.278 1000.021,660.681 917.623,660.681 876.424,589.321 867.654,589.321    913.239,668.278  " />
	<polygon style="fill:#BFA07B;" points="861.666,578.951 866.051,571.356 824.854,500.001 866.051,428.646 861.666,421.051    816.085,500.001  " />
	<polygon style="fill:#BFA07B;" points="628.94,660.681 587.74,589.321 578.97,589.321 624.556,668.278 715.724,668.278    711.337,660.681  " />
	<polygon style="fill:#BFA07B;" points="581.753,578.951 580.151,581.723 583.353,581.723  " />
	<polygon style="fill:#BFA07B;" points="720.107,660.681 721.709,663.456 723.312,660.681  " />
	<polygon style="fill:#BFA07B;" points="578.971,410.679 577.368,413.456 581.753,421.051 583.355,418.276 587.741,410.679    628.94,339.321 814.479,339.321 855.678,410.679 860.064,418.276 861.666,421.051 866.051,428.646 907.248,500.001    866.051,571.356 861.666,578.951 860.065,581.723 868.835,581.723 870.436,578.951 916.018,500.001 870.436,421.051    866.051,413.456 864.448,410.679 818.863,331.724 624.556,331.724  " />
	<polygon style="fill:#BFA07B;" points="864.449,589.321 855.679,589.321 814.479,660.681 732.082,660.681 727.695,668.278    818.863,668.278  " />
	<polygon style="fill:#BFA07B;" points="572.982,578.951 577.368,571.356 536.17,500.001 577.368,428.646 572.982,421.051    527.401,500.001  " />
	<polygon style="fill:#BFA07B;" points="431.423,660.681 433.026,663.456 434.628,660.681  " />
	<polygon style="fill:#BFA07B;" points="290.287,410.679 288.684,413.456 293.069,421.051 294.671,418.276 299.057,410.679    340.256,339.321 525.795,339.321 566.994,410.679 571.38,418.276 572.982,421.051 577.368,428.646 618.565,500.001    577.368,571.356 572.982,578.951 571.382,581.723 580.151,581.723 581.753,578.951 627.334,500.001 581.753,421.051    577.368,413.456 575.764,410.679 530.18,331.724 335.872,331.724  " />
	<polygon style="fill:#BFA07B;" points="525.795,660.681 443.398,660.681 439.011,668.278 530.18,668.278 575.765,589.321    566.995,589.321  " />
	<polygon style="fill:#BFA07B;" points="291.468,581.723 294.67,581.723 293.069,578.951  " />
	<polygon style="fill:#BFA07B;" points="340.256,660.681 299.056,589.321 290.286,589.321 335.872,668.278 427.04,668.278    422.653,660.681  " />
	<polygon style="fill:#BFA07B;" points="247.487,500.001 288.684,428.646 284.299,421.051 238.718,500.001 284.299,578.951    288.684,571.356  " />
	<polygon style="fill:#BFA07B;" points="2.784,581.723 5.986,581.723 4.386,578.951  " />
	<polygon style="fill:#BFA07B;" points="51.573,660.681 10.373,589.321 1.603,589.321 47.188,668.278 138.356,668.278    133.97,660.681  " />
	<polygon style="fill:#BFA07B;" points="237.112,660.681 154.714,660.681 150.328,668.278 241.496,668.278 287.082,589.321    278.312,589.321  " />
	<polygon style="fill:#BFA07B;" points="142.74,660.681 144.342,663.456 145.945,660.681  " />
	<polygon style="fill:#BFA07B;" points="10.374,410.679 51.573,339.321 237.112,339.321 278.311,410.679 282.697,418.276    284.299,421.051 288.684,428.646 329.881,500.001 288.684,571.356 284.299,578.951 282.698,581.723 291.468,581.723    293.069,578.951 338.65,500.001 293.069,421.051 288.684,413.456 287.081,410.679 241.496,331.724 47.188,331.724 1.604,410.679    0,413.456 4.386,421.051 5.987,418.276  " />
	<polygon style="fill:#BFA07B;" points="4.386,578.951 49.967,500.001 4.386,421.051 0,413.456 0,428.645 41.198,500.001 0,571.356    0,581.723 2.784,581.723  " />
	<polygon style="fill:#BFA07B;" points="2171.113,831.723 2169.513,828.95 2167.911,831.723  " />
	<polygon style="fill:#BFA07B;" points="2309.469,913.455 2309.469,910.68 2307.867,910.68  " />
	<polygon style="fill:#BFA07B;" points="2303.484,918.278 2299.097,910.68 2216.7,910.68 2175.5,839.32 2166.73,839.32    2212.315,918.278  " />
	<polygon style="fill:#BFA07B;" points="2160.742,828.95 2165.127,821.355 2123.93,750 2165.127,678.646 2160.742,671.051    2115.161,750  " />
	<polygon style="fill:#BFA07B;" points="2212.315,581.723 2166.73,660.681 2165.127,663.456 2169.513,671.051 2171.113,668.278    2175.5,660.681 2216.7,589.321 2309.469,589.321 2309.469,581.723  " />
	<polygon style="fill:#BFA07B;" points="1872.059,828.95 1876.444,821.355 1835.246,750 1876.444,678.646 1872.059,671.051    1826.478,750  " />
	<polygon style="fill:#BFA07B;" points="2117.939,581.723 1923.632,581.723 1878.046,660.681 1876.444,663.456 1880.829,671.051    1882.43,668.278 1886.816,660.681 1928.016,589.321 2113.555,589.321 2154.755,660.681 2159.142,668.278 2160.742,671.051    2165.127,678.646 2206.325,750 2165.127,821.355 2160.742,828.95 2159.142,831.723 2167.911,831.723 2169.513,828.95 2215.094,750    2169.513,671.051 2165.127,663.456 2163.525,660.681  " />
	<polygon style="fill:#BFA07B;" points="2020.786,913.455 2022.388,910.68 2019.183,910.68  " />
	<polygon style="fill:#BFA07B;" points="2014.8,918.278 2010.413,910.68 1928.016,910.68 1886.816,839.32 1878.046,839.32    1923.632,918.278  " />
	<polygon style="fill:#BFA07B;" points="2163.525,839.32 2154.755,839.32 2113.555,910.68 2031.158,910.68 2026.771,918.278    2117.939,918.278  " />
	<polygon style="fill:#BFA07B;" points="1882.43,831.723 1880.829,828.95 1879.228,831.723  " />
	<polygon style="fill:#BFA07B;" points="1874.842,839.32 1866.072,839.32 1824.871,910.68 1742.474,910.68 1738.088,918.278    1829.256,918.278  " />
	<polygon style="fill:#BFA07B;" points="1726.116,918.278 1721.73,910.68 1639.333,910.68 1598.132,839.32 1589.363,839.32    1634.948,918.278  " />
	<polygon style="fill:#BFA07B;" points="1829.256,581.723 1634.948,581.723 1589.363,660.681 1587.76,663.456 1592.145,671.051    1593.746,668.278 1598.132,660.681 1639.333,589.321 1824.871,589.321 1866.072,660.681 1870.458,668.278 1872.059,671.051    1876.444,678.646 1917.641,750 1876.444,821.355 1872.059,828.95 1870.458,831.723 1879.228,831.723 1880.829,828.95 1926.41,750    1880.829,671.051 1876.444,663.456 1874.842,660.681  " />
	<polygon style="fill:#BFA07B;" points="1583.375,828.95 1587.76,821.355 1546.563,750 1587.76,678.646 1583.375,671.051    1537.794,750  " />
	<polygon style="fill:#BFA07B;" points="1732.102,913.455 1733.704,910.68 1730.5,910.68  " />
	<polygon style="fill:#BFA07B;" points="1593.746,831.723 1592.145,828.95 1590.544,831.723  " />
	<polygon style="fill:#BFA07B;" points="1303.462,828.95 1301.86,831.723 1305.062,831.723  " />
	<polygon style="fill:#BFA07B;" points="1300.679,660.681 1299.077,663.456 1303.462,671.051 1305.062,668.278 1309.449,660.681    1350.649,589.321 1536.188,589.321 1577.388,660.681 1581.775,668.278 1583.375,671.051 1587.76,678.646 1628.957,750    1587.76,821.355 1583.375,828.95 1581.775,831.723 1590.544,831.723 1592.145,828.95 1637.726,750 1592.145,671.051    1587.76,663.456 1586.158,660.681 1540.572,581.723 1346.265,581.723  " />
	<polygon style="fill:#BFA07B;" points="1294.691,828.95 1299.077,821.355 1257.879,750 1299.077,678.646 1294.691,671.051    1249.11,750  " />
	<polygon style="fill:#BFA07B;" points="1586.158,839.32 1577.388,839.32 1536.188,910.68 1453.791,910.68 1449.404,918.278    1540.572,918.278  " />
	<polygon style="fill:#BFA07B;" points="1437.433,918.278 1433.046,910.68 1350.649,910.68 1309.449,839.32 1300.679,839.32    1346.265,918.278  " />
	<polygon style="fill:#BFA07B;" points="1443.418,913.455 1445.021,910.68 1441.816,910.68  " />
	<polygon style="fill:#BFA07B;" points="1014.778,828.95 1013.177,831.723 1016.379,831.723  " />
	<polygon style="fill:#BFA07B;" points="1011.995,660.681 1010.393,663.456 1014.778,671.051 1016.379,668.278 1020.765,660.681    1061.965,589.321 1247.504,589.321 1288.704,660.681 1293.091,668.278 1294.691,671.051 1299.077,678.646 1340.274,750    1299.077,821.355 1294.691,828.95 1293.091,831.723 1301.86,831.723 1303.462,828.95 1349.043,750 1303.462,671.051    1299.077,663.456 1297.474,660.681 1251.889,581.723 1057.581,581.723  " />
	<polygon style="fill:#BFA07B;" points="1006.008,828.95 1010.393,821.355 969.196,750 1010.393,678.646 1006.008,671.051    960.427,750  " />
	<polygon style="fill:#BFA07B;" points="1154.735,913.455 1156.337,910.68 1153.132,910.68  " />
	<polygon style="fill:#BFA07B;" points="1297.474,839.32 1288.704,839.32 1247.504,910.68 1165.107,910.68 1160.721,918.278    1251.889,918.278  " />
	<polygon style="fill:#BFA07B;" points="1148.749,918.278 1144.363,910.68 1061.965,910.68 1020.765,839.32 1011.995,839.32    1057.581,918.278  " />
	<polygon style="fill:#BFA07B;" points="723.312,660.681 721.709,663.456 726.095,671.051 727.695,668.278 732.082,660.681    773.282,589.321 958.821,589.321 1000.021,660.681 1004.407,668.278 1006.008,671.051 1010.393,678.646 1051.59,750    1010.393,821.355 1006.008,828.95 1004.407,831.723 1013.177,831.723 1014.778,828.95 1060.359,750 1014.778,671.051    1010.393,663.456 1008.791,660.681 963.205,581.723 768.897,581.723  " />
	<polygon style="fill:#BFA07B;" points="1008.791,839.32 1000.021,839.32 958.821,910.68 876.424,910.68 872.037,918.278    963.205,918.278  " />
	<polygon style="fill:#BFA07B;" points="726.095,828.95 724.493,831.723 727.695,831.723  " />
	<polygon style="fill:#BFA07B;" points="864.449,910.68 866.051,913.455 867.654,910.68  " />
	<polygon style="fill:#BFA07B;" points="680.512,750 721.709,678.646 717.324,671.051 671.743,750 717.324,828.95 721.709,821.355     " />
	<polygon style="fill:#BFA07B;" points="773.282,910.68 732.082,839.32 723.312,839.32 768.897,918.278 860.065,918.278    855.679,910.68  " />
	<polygon style="fill:#BFA07B;" points="575.765,910.68 577.368,913.455 578.97,910.68  " />
	<polygon style="fill:#BFA07B;" points="484.598,910.68 443.398,839.32 434.628,839.32 480.214,918.278 571.382,918.278    566.995,910.68  " />
	<polygon style="fill:#BFA07B;" points="670.137,910.68 587.74,910.68 583.353,918.278 674.521,918.278 720.107,839.32    711.337,839.32  " />
	<polygon style="fill:#BFA07B;" points="437.411,828.95 435.81,831.723 439.011,831.723  " />
	<polygon style="fill:#BFA07B;" points="391.829,750 433.026,678.646 428.641,671.051 383.059,750 428.641,828.95 433.026,821.355     " />
	<polygon style="fill:#BFA07B;" points="443.398,660.681 484.598,589.321 670.137,589.321 711.337,660.681 715.724,668.278    717.324,671.051 721.709,678.646 762.907,750 721.709,821.355 717.324,828.95 715.724,831.723 724.493,831.723 726.095,828.95    771.676,750 726.095,671.051 721.709,663.456 720.107,660.681 674.521,581.723 480.214,581.723 434.628,660.681 433.026,663.456    437.411,671.051 439.011,668.278  " />
	<polygon style="fill:#BFA07B;" points="195.914,910.68 154.714,839.32 145.945,839.32 191.53,918.278 282.698,918.278    278.312,910.68  " />
	<polygon style="fill:#BFA07B;" points="381.453,910.68 299.056,910.68 294.67,918.278 385.838,918.278 431.423,839.32    422.653,839.32  " />
	<polygon style="fill:#BFA07B;" points="148.727,828.95 147.126,831.723 150.328,831.723  " />
	<polygon style="fill:#BFA07B;" points="103.145,750 144.342,678.646 139.957,671.051 94.376,750 139.957,828.95 144.342,821.355     " />
	<polygon style="fill:#BFA07B;" points="287.082,910.68 288.684,913.455 290.286,910.68  " />
	<polygon style="fill:#BFA07B;" points="154.714,660.681 195.914,589.321 381.453,589.321 422.653,660.681 427.04,668.278    428.641,671.051 433.026,678.646 474.223,750 433.026,821.355 428.641,828.95 427.04,831.723 435.81,831.723 437.411,828.95    482.992,750 437.411,671.051 433.026,663.456 431.423,660.681 385.838,581.723 191.53,581.723 145.945,660.681 144.342,663.456    148.727,671.051 150.328,668.278  " />
	<polygon style="fill:#BFA07B;" points="1.603,910.68 0,910.68 0,913.455  " />
	<polygon style="fill:#BFA07B;" points="92.77,910.68 10.373,910.68 5.986,918.278 97.154,918.278 142.74,839.32 133.97,839.32  " />
	<polygon style="fill:#BFA07B;" points="92.77,589.321 133.97,660.681 138.356,668.278 139.957,671.051 144.342,678.646    185.539,750 144.342,821.355 139.957,828.95 138.356,831.723 147.126,831.723 148.727,828.95 194.308,750 148.727,671.051    144.342,663.456 142.74,660.681 97.154,581.723 0,581.723 0,589.321  " />
	<polygon style="fill:#BFA07B;" points="2259.503,1000 2305.084,1078.95 2309.469,1071.356 2268.272,1000 2309.469,928.646    2305.084,921.05  " />
	<polygon style="fill:#BFA07B;" points="2016.4,1078.95 2020.786,1071.355 1979.588,1000 2020.786,928.645 2016.4,921.05    1970.819,1000  " />
	<polygon style="fill:#BFA07B;" points="2303.484,1081.723 2309.469,1081.723 2309.469,1071.356 2305.084,1078.95  " />
	<polygon style="fill:#BFA07B;" points="2262.281,831.723 2067.974,831.723 2022.388,910.68 2020.786,913.455 2025.171,921.05    2026.771,918.278 2031.158,910.68 2072.358,839.32 2257.897,839.32 2299.097,910.68 2303.484,918.278 2305.084,921.05    2309.469,928.645 2309.469,913.455 2307.867,910.68  " />
	<polygon style="fill:#BFA07B;" points="2159.142,1168.277 2154.755,1160.68 2072.358,1160.68 2031.158,1089.32 2022.388,1089.32    2067.974,1168.277  " />
	<polygon style="fill:#BFA07B;" points="2165.127,1163.455 2166.73,1160.68 2163.525,1160.68  " />
	<polygon style="fill:#BFA07B;" points="2025.171,1078.95 2023.569,1081.723 2026.771,1081.723  " />
	<polygon style="fill:#BFA07B;" points="2307.867,1089.32 2299.097,1089.32 2257.897,1160.68 2175.5,1160.68 2171.113,1168.277    2262.281,1168.277  " />
	<polygon style="fill:#BFA07B;" points="1736.487,1078.95 1734.886,1081.723 1738.088,1081.723  " />
	<polygon style="fill:#BFA07B;" points="2019.183,1089.32 2010.413,1089.32 1969.213,1160.68 1886.816,1160.68 1882.43,1168.277    1973.598,1168.277  " />
	<polygon style="fill:#BFA07B;" points="1727.717,1078.95 1732.102,1071.355 1690.905,1000 1732.102,928.645 1727.717,921.05    1682.136,1000  " />
	<polygon style="fill:#BFA07B;" points="1876.444,1163.455 1878.046,1160.68 1874.842,1160.68  " />
	<polygon style="fill:#BFA07B;" points="1973.598,831.723 1779.29,831.723 1733.704,910.68 1732.102,913.455 1736.487,921.05    1738.088,918.278 1742.474,910.68 1783.674,839.32 1969.213,839.32 2010.413,910.68 2014.8,918.278 2016.4,921.05    2020.786,928.645 2061.983,1000 2020.786,1071.355 2016.4,1078.95 2014.8,1081.723 2023.569,1081.723 2025.171,1078.95    2070.752,1000 2025.171,921.05 2020.786,913.455 2019.183,910.68  " />
	<polygon style="fill:#BFA07B;" points="1870.458,1168.277 1866.072,1160.68 1783.674,1160.68 1742.474,1089.32 1733.704,1089.32    1779.29,1168.277  " />
	<polygon style="fill:#BFA07B;" points="1447.804,1078.95 1446.202,1081.723 1449.404,1081.723  " />
	<polygon style="fill:#BFA07B;" points="1581.775,1168.277 1577.388,1160.68 1494.991,1160.68 1453.791,1089.32 1445.021,1089.32    1490.606,1168.277  " />
	<polygon style="fill:#BFA07B;" points="1684.914,831.723 1490.606,831.723 1445.021,910.68 1443.418,913.455 1447.804,921.05    1449.404,918.278 1453.791,910.68 1494.991,839.32 1680.53,839.32 1721.73,910.68 1726.116,918.278 1727.717,921.05    1732.102,928.645 1773.299,1000 1732.102,1071.355 1727.717,1078.95 1726.116,1081.723 1734.886,1081.723 1736.487,1078.95    1782.068,1000 1736.487,921.05 1732.102,913.455 1730.5,910.68  " />
	<polygon style="fill:#BFA07B;" points="1587.76,1163.455 1589.363,1160.68 1586.158,1160.68  " />
	<polygon style="fill:#BFA07B;" points="1730.5,1089.32 1721.73,1089.32 1680.53,1160.68 1598.132,1160.68 1593.746,1168.277    1684.914,1168.277  " />
	<polygon style="fill:#BFA07B;" points="1439.033,1078.95 1443.418,1071.355 1402.221,1000 1443.418,928.645 1439.033,921.05    1393.452,1000  " />
	<polygon style="fill:#BFA07B;" points="1441.816,1089.32 1433.046,1089.32 1391.846,1160.68 1309.449,1160.68 1305.062,1168.277    1396.23,1168.277  " />
	<polygon style="fill:#BFA07B;" points="1157.519,1081.723 1160.721,1081.723 1159.12,1078.95  " />
	<polygon style="fill:#BFA07B;" points="1396.23,831.723 1201.923,831.723 1156.337,910.68 1154.735,913.455 1159.12,921.05    1160.721,918.278 1165.107,910.68 1206.307,839.32 1391.846,839.32 1433.046,910.68 1437.433,918.278 1439.033,921.05    1443.418,928.645 1484.616,1000 1443.418,1071.355 1439.033,1078.95 1437.433,1081.723 1446.202,1081.723 1447.804,1078.95    1493.385,1000 1447.804,921.05 1443.418,913.455 1441.816,910.68  " />
	<polygon style="fill:#BFA07B;" points="1150.35,1078.95 1154.735,1071.355 1113.538,1000 1154.735,928.645 1150.35,921.05    1104.769,1000  " />
	<polygon style="fill:#BFA07B;" points="1293.091,1168.277 1288.704,1160.68 1206.307,1160.68 1165.107,1089.32 1156.337,1089.32    1201.923,1168.277  " />
	<polygon style="fill:#BFA07B;" points="1299.077,1163.455 1300.679,1160.68 1297.474,1160.68  " />
	<polygon style="fill:#BFA07B;" points="824.854,1000 866.051,928.645 861.666,921.05 816.085,1000 861.666,1078.95    866.051,1071.355  " />
	<polygon style="fill:#BFA07B;" points="867.654,910.68 866.051,913.455 870.436,921.05 872.037,918.278 876.424,910.68    917.623,839.32 1103.162,839.32 1144.363,910.68 1148.749,918.278 1150.35,921.05 1154.735,928.645 1195.932,1000    1154.735,1071.355 1150.35,1078.95 1148.749,1081.723 1157.519,1081.723 1159.12,1078.95 1204.701,1000 1159.12,921.05    1154.735,913.455 1153.132,910.68 1107.547,831.723 913.239,831.723  " />
	<polygon style="fill:#BFA07B;" points="1004.407,1168.277 1000.021,1160.68 917.623,1160.68 876.424,1089.32 867.654,1089.32    913.239,1168.277  " />
	<polygon style="fill:#BFA07B;" points="868.835,1081.723 872.037,1081.723 870.436,1078.95  " />
	<polygon style="fill:#BFA07B;" points="1010.393,1163.455 1011.995,1160.68 1008.791,1160.68  " />
	<polygon style="fill:#BFA07B;" points="1153.132,1089.32 1144.363,1089.32 1103.162,1160.68 1020.765,1160.68 1016.379,1168.277    1107.547,1168.277  " />
	<polygon style="fill:#BFA07B;" points="720.107,1160.68 721.709,1163.455 723.312,1160.68  " />
	<polygon style="fill:#BFA07B;" points="864.449,1089.32 855.679,1089.32 814.479,1160.68 732.082,1160.68 727.695,1168.277    818.863,1168.277  " />
	<polygon style="fill:#BFA07B;" points="536.17,1000 577.368,928.645 572.982,921.05 527.401,1000 572.982,1078.95    577.368,1071.355  " />
	<polygon style="fill:#BFA07B;" points="580.151,1081.723 583.353,1081.723 581.753,1078.95  " />
	<polygon style="fill:#BFA07B;" points="628.94,1160.68 587.74,1089.32 578.97,1089.32 624.556,1168.277 715.724,1168.277    711.337,1160.68  " />
	<polygon style="fill:#BFA07B;" points="587.74,910.68 628.94,839.32 814.479,839.32 855.679,910.68 860.065,918.278    861.666,921.05 866.051,928.645 907.248,1000 866.051,1071.355 861.666,1078.95 860.065,1081.723 868.835,1081.723    870.436,1078.95 916.018,1000 870.436,921.05 866.051,913.455 864.449,910.68 818.863,831.723 624.556,831.723 578.97,910.68    577.368,913.455 581.753,921.05 583.353,918.278  " />
	<polygon style="fill:#BFA07B;" points="340.256,1160.68 299.056,1089.32 290.286,1089.32 335.872,1168.277 427.04,1168.277    422.653,1160.68  " />
	<polygon style="fill:#BFA07B;" points="291.468,1081.723 294.67,1081.723 293.069,1078.95  " />
	<polygon style="fill:#BFA07B;" points="431.423,1160.68 433.026,1163.455 434.628,1160.68  " />
	<polygon style="fill:#BFA07B;" points="247.487,1000 288.684,928.645 284.299,921.05 238.718,1000 284.299,1078.95    288.684,1071.355  " />
	<polygon style="fill:#BFA07B;" points="525.795,1160.68 443.398,1160.68 439.011,1168.277 530.18,1168.277 575.765,1089.32    566.995,1089.32  " />
	<polygon style="fill:#BFA07B;" points="299.056,910.68 340.256,839.32 525.795,839.32 566.995,910.68 571.382,918.278    572.982,921.05 577.368,928.645 618.565,1000 577.368,1071.355 572.982,1078.95 571.382,1081.723 580.151,1081.723    581.753,1078.95 627.334,1000 581.753,921.05 577.368,913.455 575.765,910.68 530.18,831.723 335.872,831.723 290.286,910.68    288.684,913.455 293.069,921.05 294.67,918.278  " />
	<polygon style="fill:#BFA07B;" points="2.784,1081.723 5.986,1081.723 4.386,1078.95  " />
	<polygon style="fill:#BFA07B;" points="237.112,1160.68 154.714,1160.68 150.328,1168.277 241.496,1168.277 287.082,1089.32    278.312,1089.32  " />
	<polygon style="fill:#BFA07B;" points="142.74,1160.68 144.342,1163.455 145.945,1160.68  " />
	<polygon style="fill:#BFA07B;" points="51.573,1160.68 10.373,1089.32 1.603,1089.32 47.188,1168.277 138.356,1168.277    133.97,1160.68  " />
	<polygon style="fill:#BFA07B;" points="10.373,910.68 51.573,839.32 237.112,839.32 278.312,910.68 282.698,918.278    284.299,921.05 288.684,928.645 329.881,1000 288.684,1071.355 284.299,1078.95 282.698,1081.723 291.468,1081.723    293.069,1078.95 338.65,1000 293.069,921.05 288.684,913.455 287.082,910.68 241.496,831.723 47.188,831.723 1.603,910.68    0,913.455 4.386,921.05 5.986,918.278  " />
	<polygon style="fill:#BFA07B;" points="4.386,1078.95 49.967,1000 4.386,921.05 0,913.455 0,928.645 41.198,1000 0,1071.355    0,1081.723 2.784,1081.723  " />
	<polygon style="fill:#BFA07B;" points="2309.469,1413.454 2309.469,1410.68 2307.867,1410.68  " />
	<polygon style="fill:#BFA07B;" points="2160.742,1328.95 2165.127,1321.355 2123.93,1250 2165.127,1178.645 2160.742,1171.05    2115.161,1250  " />
	<polygon style="fill:#BFA07B;" points="2303.484,1418.277 2299.097,1410.68 2216.7,1410.68 2175.5,1339.32 2166.73,1339.32    2212.315,1418.277  " />
	<polygon style="fill:#BFA07B;" points="2171.113,1331.722 2169.513,1328.95 2167.911,1331.722  " />
	<polygon style="fill:#BFA07B;" points="2212.315,1081.723 2166.73,1160.68 2165.127,1163.455 2169.513,1171.05 2171.113,1168.277    2175.5,1160.68 2216.7,1089.32 2309.469,1089.32 2309.469,1081.723  " />
	<polygon style="fill:#BFA07B;" points="2117.939,1081.723 1923.632,1081.723 1878.046,1160.68 1876.444,1163.455 1880.829,1171.05    1882.43,1168.277 1886.816,1160.68 1928.016,1089.32 2113.555,1089.32 2154.755,1160.68 2159.142,1168.277 2160.742,1171.05    2165.127,1178.645 2206.325,1250 2165.127,1321.355 2160.742,1328.95 2159.142,1331.722 2167.911,1331.722 2169.513,1328.95    2215.094,1250 2169.513,1171.05 2165.127,1163.455 2163.525,1160.68  " />
	<polygon style="fill:#BFA07B;" points="1882.43,1331.722 1880.829,1328.95 1879.228,1331.722  " />
	<polygon style="fill:#BFA07B;" points="2163.525,1339.32 2154.755,1339.32 2113.555,1410.68 2031.158,1410.68 2026.771,1418.277    2117.939,1418.277  " />
	<polygon style="fill:#BFA07B;" points="2020.786,1413.455 2022.388,1410.68 2019.183,1410.68  " />
	<polygon style="fill:#BFA07B;" points="2014.8,1418.277 2010.413,1410.68 1928.016,1410.68 1886.816,1339.32 1878.046,1339.32    1923.632,1418.277  " />
	<polygon style="fill:#BFA07B;" points="1872.059,1328.95 1876.444,1321.355 1835.246,1250 1876.444,1178.645 1872.059,1171.05    1826.478,1250  " />
	<polygon style="fill:#BFA07B;" points="1829.256,1081.723 1634.948,1081.723 1589.363,1160.68 1587.76,1163.455 1592.145,1171.05    1593.746,1168.277 1598.132,1160.68 1639.333,1089.32 1824.871,1089.32 1866.072,1160.68 1870.458,1168.277 1872.059,1171.05    1876.444,1178.645 1917.641,1250 1876.444,1321.355 1872.059,1328.95 1870.458,1331.722 1879.228,1331.722 1880.829,1328.95    1926.41,1250 1880.829,1171.05 1876.444,1163.455 1874.842,1160.68  " />
	<polygon style="fill:#BFA07B;" points="1874.842,1339.32 1866.072,1339.32 1824.871,1410.68 1742.474,1410.68 1738.088,1418.277    1829.256,1418.277  " />
	<polygon style="fill:#BFA07B;" points="1593.746,1331.722 1592.145,1328.95 1590.544,1331.722  " />
	<polygon style="fill:#BFA07B;" points="1583.375,1328.95 1587.76,1321.355 1546.563,1250 1587.76,1178.645 1583.375,1171.05    1537.794,1250  " />
	<polygon style="fill:#BFA07B;" points="1732.102,1413.455 1733.704,1410.68 1730.5,1410.68  " />
	<polygon style="fill:#BFA07B;" points="1726.116,1418.277 1721.73,1410.68 1639.333,1410.68 1598.132,1339.32 1589.363,1339.32    1634.948,1418.277  " />
	<polygon style="fill:#BFA07B;" points="1294.691,1328.95 1299.077,1321.355 1257.879,1250 1299.077,1178.645 1294.691,1171.05    1249.11,1250  " />
	<polygon style="fill:#BFA07B;" points="1301.86,1331.722 1305.062,1331.722 1303.462,1328.95  " />
	<polygon style="fill:#BFA07B;" points="1586.158,1339.32 1577.388,1339.32 1536.188,1410.68 1453.791,1410.68 1449.404,1418.277    1540.572,1418.277  " />
	<polygon style="fill:#BFA07B;" points="1540.572,1081.723 1346.265,1081.723 1300.679,1160.68 1299.077,1163.455 1303.462,1171.05    1305.062,1168.277 1309.449,1160.68 1350.649,1089.32 1536.188,1089.32 1577.388,1160.68 1581.775,1168.277 1583.375,1171.05    1587.76,1178.645 1628.957,1250 1587.76,1321.355 1583.375,1328.95 1581.775,1331.722 1590.544,1331.722 1592.145,1328.95    1637.726,1250 1592.145,1171.05 1587.76,1163.455 1586.158,1160.68  " />
	<polygon style="fill:#BFA07B;" points="1437.433,1418.277 1433.046,1410.68 1350.649,1410.68 1309.449,1339.32 1300.679,1339.32    1346.265,1418.277  " />
	<polygon style="fill:#BFA07B;" points="1443.418,1413.455 1445.021,1410.68 1441.816,1410.68  " />
	<polygon style="fill:#BFA07B;" points="1297.474,1339.32 1288.704,1339.32 1247.504,1410.68 1165.107,1410.68 1160.721,1418.277    1251.889,1418.277  " />
	<polygon style="fill:#BFA07B;" points="1154.735,1413.455 1156.337,1410.68 1153.132,1410.68  " />
	<polygon style="fill:#BFA07B;" points="1349.043,1250 1303.462,1171.05 1299.077,1163.455 1297.474,1160.68 1251.889,1081.723    1057.581,1081.723 1011.995,1160.68 1010.393,1163.455 1014.778,1171.05 1016.379,1168.277 1020.765,1160.68 1061.965,1089.32    1247.504,1089.32 1288.704,1160.68 1293.091,1168.277 1294.691,1171.05 1299.077,1178.645 1340.274,1250 1299.077,1321.355    1294.691,1328.95 1293.091,1331.722 1301.86,1331.722 1303.462,1328.95  " />
	<polygon style="fill:#BFA07B;" points="1006.008,1328.95 1010.393,1321.355 969.196,1250 1010.393,1178.645 1006.008,1171.05    960.427,1250  " />
	<polygon style="fill:#BFA07B;" points="1148.749,1418.277 1144.363,1410.68 1061.965,1410.68 1020.765,1339.32 1011.995,1339.32    1057.581,1418.277  " />
	<polygon style="fill:#BFA07B;" points="1013.177,1331.722 1016.379,1331.722 1014.778,1328.95  " />
	<polygon style="fill:#BFA07B;" points="680.512,1250 721.709,1178.645 717.324,1171.05 671.743,1250 717.324,1328.95    721.709,1321.355  " />
	<polygon style="fill:#BFA07B;" points="1060.359,1250 1014.778,1171.05 1010.393,1163.455 1008.791,1160.68 963.205,1081.723    768.897,1081.723 723.312,1160.68 721.709,1163.455 726.095,1171.05 727.695,1168.277 732.082,1160.68 773.282,1089.32    958.821,1089.32 1000.021,1160.68 1004.407,1168.277 1006.008,1171.05 1010.393,1178.645 1051.59,1250 1010.393,1321.355    1006.008,1328.95 1004.407,1331.722 1013.177,1331.722 1014.778,1328.95  " />
	<polygon style="fill:#BFA07B;" points="724.493,1331.722 727.695,1331.722 726.095,1328.95  " />
	<polygon style="fill:#BFA07B;" points="1008.791,1339.32 1000.021,1339.32 958.821,1410.68 876.424,1410.68 872.037,1418.277    963.205,1418.277  " />
	<polygon style="fill:#BFA07B;" points="866.051,1413.455 867.654,1410.68 864.449,1410.68  " />
	<polygon style="fill:#BFA07B;" points="860.065,1418.277 855.679,1410.68 773.282,1410.68 732.082,1339.32 723.312,1339.32    768.897,1418.277  " />
	<polygon style="fill:#BFA07B;" points="571.382,1418.277 566.995,1410.68 484.598,1410.68 443.398,1339.32 434.628,1339.32    480.214,1418.277  " />
	<polygon style="fill:#BFA07B;" points="391.829,1250 433.026,1178.645 428.641,1171.05 383.059,1250 428.641,1328.95    433.026,1321.355  " />
	<polygon style="fill:#BFA07B;" points="437.411,1328.95 435.81,1331.722 439.011,1331.722  " />
	<polygon style="fill:#BFA07B;" points="577.368,1413.455 578.97,1410.68 575.765,1410.68  " />
	<polygon style="fill:#BFA07B;" points="720.107,1339.32 711.337,1339.32 670.137,1410.68 587.74,1410.68 583.353,1418.277    674.521,1418.277  " />
	<polygon style="fill:#BFA07B;" points="443.398,1160.68 484.598,1089.32 670.137,1089.32 711.337,1160.68 715.724,1168.277    717.324,1171.05 721.709,1178.645 762.907,1250 721.709,1321.355 717.324,1328.95 715.724,1331.722 724.493,1331.722    726.095,1328.95 771.676,1250 726.095,1171.05 721.709,1163.455 720.107,1160.68 674.521,1081.723 480.214,1081.723    434.628,1160.68 433.026,1163.455 437.411,1171.05 439.011,1168.277  " />
	<polygon style="fill:#BFA07B;" points="287.082,1410.68 288.684,1413.455 290.286,1410.68  " />
	<polygon style="fill:#BFA07B;" points="148.727,1328.95 147.126,1331.722 150.328,1331.722  " />
	<polygon style="fill:#BFA07B;" points="103.145,1250 144.342,1178.645 139.957,1171.05 94.376,1250 139.957,1328.95    144.342,1321.355  " />
	<polygon style="fill:#BFA07B;" points="195.914,1410.68 154.714,1339.32 145.945,1339.32 191.53,1418.277 282.698,1418.277    278.312,1410.68  " />
	<polygon style="fill:#BFA07B;" points="431.423,1339.32 422.653,1339.32 381.453,1410.68 299.056,1410.68 294.67,1418.277    385.838,1418.277  " />
	<polygon style="fill:#BFA07B;" points="154.714,1160.68 195.914,1089.32 381.453,1089.32 422.653,1160.68 427.04,1168.277    428.641,1171.05 433.026,1178.645 474.223,1250 433.026,1321.355 428.641,1328.95 427.04,1331.722 435.81,1331.722    437.411,1328.95 482.992,1250 437.411,1171.05 433.026,1163.455 431.423,1160.68 385.838,1081.723 191.53,1081.723    145.945,1160.68 144.342,1163.455 148.727,1171.05 150.328,1168.277  " />
	<polygon style="fill:#BFA07B;" points="1.603,1410.68 0,1410.68 0,1413.454  " />
	<polygon style="fill:#BFA07B;" points="92.77,1410.68 10.373,1410.68 5.986,1418.277 97.154,1418.277 142.74,1339.32    133.97,1339.32  " />
	<polygon style="fill:#BFA07B;" points="92.77,1089.32 133.97,1160.68 138.356,1168.277 139.957,1171.05 144.342,1178.645    185.539,1250 144.342,1321.355 139.957,1328.95 138.356,1331.722 147.126,1331.722 148.727,1328.95 194.308,1250 148.727,1171.05    144.342,1163.455 142.74,1160.68 97.154,1081.723 0,1081.723 0,1089.32  " />
	<polygon style="fill:#BFA07B;" points="2259.503,1500 2305.084,1578.949 2309.469,1571.355 2268.272,1500 2309.469,1428.646    2305.084,1421.05  " />
	<polygon style="fill:#BFA07B;" points="2165.127,1663.454 2166.73,1660.679 2163.525,1660.679  " />
	<polygon style="fill:#BFA07B;" points="2262.281,1331.722 2067.974,1331.722 2022.388,1410.68 2020.786,1413.455 2025.171,1421.05    2026.771,1418.277 2031.158,1410.68 2072.358,1339.32 2257.897,1339.32 2299.097,1410.68 2303.484,1418.277 2305.084,1421.05    2309.469,1428.644 2309.469,1413.454 2307.867,1410.68  " />
	<polygon style="fill:#BFA07B;" points="2159.142,1668.277 2154.755,1660.679 2072.358,1660.679 2031.158,1589.319    2022.388,1589.319 2067.974,1668.277  " />
	<polygon style="fill:#BFA07B;" points="2303.484,1581.722 2309.469,1581.722 2309.469,1571.355 2305.084,1578.949  " />
	<polygon style="fill:#BFA07B;" points="2025.171,1578.949 2023.569,1581.722 2026.771,1581.722  " />
	<polygon style="fill:#BFA07B;" points="2016.4,1578.949 2020.786,1571.354 1979.588,1500 2020.786,1428.645 2016.4,1421.05    1970.819,1500  " />
	<polygon style="fill:#BFA07B;" points="2307.867,1589.319 2299.097,1589.319 2257.897,1660.679 2175.5,1660.679 2171.113,1668.277    2262.281,1668.277  " />
	<polygon style="fill:#BFA07B;" points="1727.717,1578.949 1732.102,1571.354 1690.905,1500 1732.102,1428.645 1727.717,1421.05    1682.136,1500  " />
	<polygon style="fill:#BFA07B;" points="1870.458,1668.277 1866.072,1660.679 1783.674,1660.679 1742.474,1589.319    1733.704,1589.319 1779.29,1668.277  " />
	<polygon style="fill:#BFA07B;" points="2019.183,1589.319 2010.413,1589.319 1969.213,1660.679 1886.816,1660.679    1882.43,1668.277 1973.598,1668.277  " />
	<polygon style="fill:#BFA07B;" points="1876.444,1663.454 1878.046,1660.679 1874.842,1660.679  " />
	<polygon style="fill:#BFA07B;" points="1734.886,1581.722 1738.088,1581.722 1736.487,1578.949  " />
	<polygon style="fill:#BFA07B;" points="1973.598,1331.722 1779.29,1331.722 1733.704,1410.68 1732.102,1413.455 1736.487,1421.05    1738.088,1418.277 1742.474,1410.68 1783.674,1339.32 1969.213,1339.32 2010.413,1410.68 2014.8,1418.277 2016.4,1421.05    2020.786,1428.645 2061.983,1500 2020.786,1571.354 2016.4,1578.949 2014.8,1581.722 2023.569,1581.722 2025.171,1578.949    2070.752,1500 2025.171,1421.05 2020.786,1413.455 2019.183,1410.68  " />
	<polygon style="fill:#BFA07B;" points="1730.5,1589.319 1721.73,1589.319 1680.53,1660.679 1598.132,1660.679 1593.746,1668.277    1684.914,1668.277  " />
	<polygon style="fill:#BFA07B;" points="1446.202,1581.722 1449.404,1581.722 1447.804,1578.949  " />
	<polygon style="fill:#BFA07B;" points="1684.914,1331.722 1490.606,1331.722 1445.021,1410.68 1443.418,1413.455 1447.804,1421.05    1449.404,1418.277 1453.791,1410.68 1494.991,1339.32 1680.53,1339.32 1721.73,1410.68 1726.116,1418.277 1727.717,1421.05    1732.102,1428.645 1773.299,1500 1732.102,1571.354 1727.717,1578.949 1726.116,1581.722 1734.886,1581.722 1736.487,1578.949    1782.068,1500 1736.487,1421.05 1732.102,1413.455 1730.5,1410.68  " />
	<polygon style="fill:#BFA07B;" points="1587.76,1663.454 1589.363,1660.679 1586.158,1660.679  " />
	<polygon style="fill:#BFA07B;" points="1439.033,1578.949 1443.418,1571.354 1402.221,1500 1443.418,1428.645 1439.033,1421.05    1393.452,1500  " />
	<polygon style="fill:#BFA07B;" points="1581.775,1668.277 1577.388,1660.679 1494.991,1660.679 1453.791,1589.319    1445.021,1589.319 1490.606,1668.277  " />
	<polygon style="fill:#BFA07B;" points="1150.35,1578.949 1154.735,1571.354 1113.538,1500 1154.735,1428.645 1150.35,1421.05    1104.769,1500  " />
	<polygon style="fill:#BFA07B;" points="1157.519,1581.722 1160.721,1581.722 1159.12,1578.949  " />
	<polygon style="fill:#BFA07B;" points="1299.077,1663.454 1300.679,1660.679 1297.474,1660.679  " />
	<polygon style="fill:#BFA07B;" points="1493.385,1500 1447.804,1421.05 1443.418,1413.455 1441.816,1410.68 1396.23,1331.722    1201.923,1331.722 1156.337,1410.68 1154.735,1413.455 1159.12,1421.05 1160.721,1418.277 1165.107,1410.68 1206.307,1339.32    1391.846,1339.32 1433.046,1410.68 1437.433,1418.277 1439.033,1421.05 1443.418,1428.645 1484.616,1500 1443.418,1571.354    1439.033,1578.949 1437.433,1581.722 1446.202,1581.722 1447.804,1578.949  " />
	<polygon style="fill:#BFA07B;" points="1441.816,1589.319 1433.046,1589.319 1391.846,1660.679 1309.449,1660.679    1305.062,1668.277 1396.23,1668.277  " />
	<polygon style="fill:#BFA07B;" points="1293.091,1668.277 1288.704,1660.679 1206.307,1660.679 1165.107,1589.319    1156.337,1589.319 1201.923,1668.277  " />
	<polygon style="fill:#BFA07B;" points="1204.701,1500 1159.12,1421.05 1154.735,1413.455 1153.132,1410.68 1107.547,1331.722    913.239,1331.722 867.654,1410.68 866.051,1413.455 870.436,1421.05 872.037,1418.277 876.424,1410.68 917.623,1339.32    1103.162,1339.32 1144.363,1410.68 1148.749,1418.277 1150.35,1421.05 1154.735,1428.645 1195.932,1500 1154.735,1571.354    1150.35,1578.949 1148.749,1581.722 1157.519,1581.722 1159.12,1578.949  " />
	<polygon style="fill:#BFA07B;" points="1010.393,1663.454 1011.995,1660.679 1008.791,1660.679  " />
	<polygon style="fill:#BFA07B;" points="868.835,1581.722 872.037,1581.722 870.436,1578.949  " />
	<polygon style="fill:#BFA07B;" points="1004.407,1668.277 1000.021,1660.679 917.623,1660.679 876.424,1589.319 867.654,1589.319    913.239,1668.277  " />
	<polygon style="fill:#BFA07B;" points="1153.132,1589.319 1144.363,1589.319 1103.162,1660.679 1020.765,1660.679    1016.379,1668.277 1107.547,1668.277  " />
	<polygon style="fill:#BFA07B;" points="861.666,1578.949 866.051,1571.354 824.854,1500 866.051,1428.645 861.666,1421.05    816.085,1500  " />
	<polygon style="fill:#BFA07B;" points="721.709,1663.454 723.312,1660.679 720.107,1660.679  " />
	<polygon style="fill:#BFA07B;" points="864.449,1589.319 855.679,1589.319 814.479,1660.679 732.082,1660.679 727.695,1668.277    818.863,1668.277  " />
	<polygon style="fill:#BFA07B;" points="580.151,1581.722 583.353,1581.722 581.753,1578.949  " />
	<polygon style="fill:#BFA07B;" points="572.982,1578.949 577.368,1571.354 536.17,1500 577.368,1428.645 572.982,1421.05    527.401,1500  " />
	<polygon style="fill:#BFA07B;" points="916.018,1500 870.436,1421.05 866.051,1413.455 864.449,1410.68 818.863,1331.722    624.556,1331.722 578.97,1410.68 577.368,1413.455 581.753,1421.05 583.353,1418.277 587.74,1410.68 628.94,1339.32    814.479,1339.32 855.679,1410.68 860.065,1418.277 861.666,1421.05 866.051,1428.645 907.248,1500 866.051,1571.354    861.666,1578.949 860.065,1581.722 868.835,1581.722 870.436,1578.949  " />
	<polygon style="fill:#BFA07B;" points="715.724,1668.277 711.337,1660.679 628.94,1660.679 587.74,1589.319 578.97,1589.319    624.556,1668.277  " />
	<polygon style="fill:#BFA07B;" points="627.334,1500 581.753,1421.05 577.368,1413.455 575.765,1410.68 530.18,1331.722    335.872,1331.722 290.286,1410.68 288.684,1413.455 293.069,1421.05 294.67,1418.277 299.056,1410.68 340.256,1339.32    525.795,1339.32 566.995,1410.68 571.382,1418.277 572.982,1421.05 577.368,1428.645 618.565,1500 577.368,1571.354    572.982,1578.949 571.382,1581.722 580.151,1581.722 581.753,1578.949  " />
	<polygon style="fill:#BFA07B;" points="291.468,1581.722 294.67,1581.722 293.069,1578.949  " />
	<polygon style="fill:#BFA07B;" points="575.765,1589.319 566.995,1589.319 525.795,1660.679 443.398,1660.679 439.011,1668.277    530.18,1668.277  " />
	<polygon style="fill:#BFA07B;" points="247.487,1500 288.684,1428.645 284.299,1421.05 238.718,1500 284.299,1578.949    288.684,1571.354  " />
	<polygon style="fill:#BFA07B;" points="427.04,1668.277 422.653,1660.679 340.256,1660.679 299.056,1589.319 290.286,1589.319    335.872,1668.277  " />
	<polygon style="fill:#BFA07B;" points="433.026,1663.454 434.628,1660.679 431.423,1660.679  " />
	<polygon style="fill:#BFA07B;" points="142.74,1660.679 144.342,1663.454 145.945,1660.679  " />
	<polygon style="fill:#BFA07B;" points="287.082,1589.319 278.312,1589.319 237.112,1660.679 154.714,1660.679 150.328,1668.277    241.496,1668.277  " />
	<polygon style="fill:#BFA07B;" points="51.573,1660.679 10.373,1589.319 1.603,1589.319 47.188,1668.277 138.356,1668.277    133.97,1660.679  " />
	<polygon style="fill:#BFA07B;" points="2.784,1581.722 5.986,1581.722 4.386,1578.949  " />
	<polygon style="fill:#BFA07B;" points="10.373,1410.68 51.573,1339.32 237.112,1339.32 278.312,1410.68 282.698,1418.277    284.299,1421.05 288.684,1428.645 329.881,1500 288.684,1571.354 284.299,1578.949 282.698,1581.722 291.468,1581.722    293.069,1578.949 338.65,1500 293.069,1421.05 288.684,1413.455 287.082,1410.68 241.496,1331.722 47.188,1331.722 1.603,1410.68    0,1413.455 4.386,1421.05 5.986,1418.277  " />
	<polygon style="fill:#BFA07B;" points="4.386,1578.949 49.967,1500 4.386,1421.05 0,1413.455 0,1428.644 41.198,1500 0,1571.354    0,1581.722 2.784,1581.722  " />
	<polygon style="fill:#BFA07B;" points="2160.742,1828.949 2165.127,1821.354 2123.93,1749.999 2165.127,1678.644    2160.742,1671.049 2115.161,1749.999  " />
	<polygon style="fill:#BFA07B;" points="2171.115,1831.724 2169.513,1828.949 2167.91,1831.724  " />
	<polygon style="fill:#BFA07B;" points="2309.469,1913.455 2309.469,1910.679 2307.866,1910.679  " />
	<polygon style="fill:#BFA07B;" points="2303.482,1918.276 2299.096,1910.679 2216.7,1910.679 2175.501,1839.321 2166.731,1839.321    2212.315,1918.276  " />
	<polygon style="fill:#BFA07B;" points="2212.315,1581.722 2166.73,1660.679 2165.127,1663.454 2169.513,1671.049    2171.113,1668.277 2175.5,1660.679 2216.7,1589.319 2309.469,1589.319 2309.469,1581.722  " />
	<polygon style="fill:#BFA07B;" points="2014.798,1918.276 2010.412,1910.679 1928.016,1910.679 1886.817,1839.321    1878.047,1839.321 1923.632,1918.276  " />
	<polygon style="fill:#BFA07B;" points="2117.939,1581.722 1923.632,1581.722 1878.046,1660.679 1876.444,1663.454    1880.829,1671.049 1882.43,1668.277 1886.816,1660.679 1928.016,1589.319 2113.555,1589.319 2154.755,1660.679 2159.142,1668.277    2160.742,1671.049 2165.127,1678.644 2206.325,1749.999 2165.127,1821.354 2160.742,1828.949 2159.14,1831.724 2167.91,1831.724    2169.513,1828.949 2215.094,1749.999 2169.513,1671.049 2165.127,1663.454 2163.525,1660.679  " />
	<polygon style="fill:#BFA07B;" points="1872.059,1828.949 1876.444,1821.354 1835.246,1749.999 1876.444,1678.644    1872.059,1671.049 1826.478,1749.999  " />
	<polygon style="fill:#BFA07B;" points="2020.786,1913.456 2022.389,1910.679 2019.182,1910.679  " />
	<polygon style="fill:#BFA07B;" points="2163.524,1839.321 2154.754,1839.321 2113.555,1910.679 2031.159,1910.679    2026.773,1918.276 2117.939,1918.276  " />
	<polygon style="fill:#BFA07B;" points="1879.227,1831.724 1882.431,1831.724 1880.829,1828.949  " />
	<polygon style="fill:#BFA07B;" points="1583.375,1828.949 1587.76,1821.354 1546.563,1749.999 1587.76,1678.644 1583.375,1671.049    1537.794,1749.999  " />
	<polygon style="fill:#BFA07B;" points="1590.543,1831.724 1593.747,1831.724 1592.145,1828.949  " />
	<polygon style="fill:#BFA07B;" points="1732.102,1913.456 1733.705,1910.679 1730.499,1910.679  " />
	<polygon style="fill:#BFA07B;" points="1874.841,1839.321 1866.071,1839.321 1824.871,1910.679 1742.475,1910.679    1738.089,1918.276 1829.256,1918.276  " />
	<polygon style="fill:#BFA07B;" points="1926.41,1749.999 1880.829,1671.049 1876.444,1663.454 1874.842,1660.679    1829.256,1581.722 1634.948,1581.722 1589.363,1660.679 1587.76,1663.454 1592.145,1671.049 1593.746,1668.277 1598.132,1660.679    1639.333,1589.319 1824.871,1589.319 1866.072,1660.679 1870.458,1668.277 1872.059,1671.049 1876.444,1678.644 1917.641,1749.999    1876.444,1821.354 1872.059,1828.949 1870.457,1831.724 1879.227,1831.724 1880.829,1828.949  " />
	<polygon style="fill:#BFA07B;" points="1726.115,1918.276 1721.729,1910.679 1639.333,1910.679 1598.133,1839.321    1589.363,1839.321 1634.948,1918.276  " />
	<polygon style="fill:#BFA07B;" points="1586.157,1839.321 1577.387,1839.321 1536.188,1910.679 1453.792,1910.679    1449.405,1918.276 1540.572,1918.276  " />
	<polygon style="fill:#BFA07B;" points="1301.859,1831.724 1305.064,1831.724 1303.462,1828.949  " />
	<polygon style="fill:#BFA07B;" points="1443.418,1913.456 1445.022,1910.679 1441.815,1910.679  " />
	<polygon style="fill:#BFA07B;" points="1637.726,1749.999 1592.145,1671.049 1587.76,1663.454 1586.158,1660.679    1540.572,1581.722 1346.265,1581.722 1300.679,1660.679 1299.077,1663.454 1303.462,1671.049 1305.062,1668.277 1309.449,1660.679    1350.649,1589.319 1536.188,1589.319 1577.388,1660.679 1581.775,1668.277 1583.375,1671.049 1587.76,1678.644 1628.957,1749.999    1587.76,1821.354 1583.375,1828.949 1581.773,1831.724 1590.543,1831.724 1592.145,1828.949  " />
	<polygon style="fill:#BFA07B;" points="1437.431,1918.276 1433.045,1910.679 1350.649,1910.679 1309.45,1839.321 1300.68,1839.321    1346.265,1918.276  " />
	<polygon style="fill:#BFA07B;" points="1294.691,1828.949 1299.077,1821.354 1257.879,1749.999 1299.077,1678.644    1294.691,1671.049 1249.11,1749.999  " />
	<polygon style="fill:#BFA07B;" points="1013.176,1831.724 1016.38,1831.724 1014.778,1828.949  " />
	<polygon style="fill:#BFA07B;" points="1006.008,1828.949 1010.393,1821.354 969.196,1749.999 1010.393,1678.644    1006.008,1671.049 960.427,1749.999  " />
	<polygon style="fill:#BFA07B;" points="1349.043,1749.999 1303.462,1671.049 1299.077,1663.454 1297.474,1660.679    1251.889,1581.722 1057.581,1581.722 1011.995,1660.679 1010.393,1663.454 1014.778,1671.049 1016.379,1668.277 1020.765,1660.679    1061.965,1589.319 1247.504,1589.319 1288.704,1660.679 1293.091,1668.277 1294.691,1671.049 1299.077,1678.644 1340.274,1749.999    1299.077,1821.354 1294.691,1828.949 1293.089,1831.724 1301.859,1831.724 1303.462,1828.949  " />
	<polygon style="fill:#BFA07B;" points="1297.473,1839.321 1288.703,1839.321 1247.504,1910.679 1165.108,1910.679    1160.722,1918.276 1251.889,1918.276  " />
	<polygon style="fill:#BFA07B;" points="1154.735,1913.456 1156.338,1910.679 1153.132,1910.679  " />
	<polygon style="fill:#BFA07B;" points="1148.748,1918.276 1144.362,1910.679 1061.965,1910.679 1020.766,1839.321    1011.996,1839.321 1057.581,1918.276  " />
	<polygon style="fill:#BFA07B;" points="717.324,1828.949 721.709,1821.354 680.512,1749.999 721.709,1678.644 717.324,1671.049    671.743,1749.999  " />
	<polygon style="fill:#BFA07B;" points="724.492,1831.724 727.696,1831.724 726.095,1828.949  " />
	<polygon style="fill:#BFA07B;" points="1060.359,1749.999 1014.778,1671.049 1010.393,1663.454 1008.791,1660.679    963.205,1581.722 768.897,1581.722 723.312,1660.679 721.709,1663.454 726.095,1671.049 727.695,1668.277 732.082,1660.679    773.282,1589.319 958.821,1589.319 1000.021,1660.679 1004.407,1668.277 1006.008,1671.049 1010.393,1678.644 1051.59,1749.999    1010.393,1821.354 1006.008,1828.949 1004.406,1831.724 1013.176,1831.724 1014.778,1828.949  " />
	<polygon style="fill:#BFA07B;" points="866.051,1913.456 867.654,1910.679 864.448,1910.679  " />
	<polygon style="fill:#BFA07B;" points="860.064,1918.276 855.678,1910.679 773.282,1910.679 732.083,1839.321 723.313,1839.321    768.897,1918.276  " />
	<polygon style="fill:#BFA07B;" points="1008.79,1839.321 1000.02,1839.321 958.821,1910.679 876.424,1910.679 872.038,1918.276    963.205,1918.276  " />
	<polygon style="fill:#BFA07B;" points="571.38,1918.276 566.994,1910.679 484.598,1910.679 443.399,1839.321 434.629,1839.321    480.214,1918.276  " />
	<polygon style="fill:#BFA07B;" points="435.809,1831.724 439.013,1831.724 437.411,1828.949  " />
	<polygon style="fill:#BFA07B;" points="428.641,1828.949 433.026,1821.354 391.829,1749.999 433.026,1678.644 428.641,1671.049    383.059,1749.999  " />
	<polygon style="fill:#BFA07B;" points="771.676,1749.999 726.095,1671.049 721.709,1663.454 720.107,1660.679 674.521,1581.722    480.214,1581.722 434.628,1660.679 433.026,1663.454 437.411,1671.049 439.011,1668.277 443.398,1660.679 484.598,1589.319    670.137,1589.319 711.337,1660.679 715.724,1668.277 717.324,1671.049 721.709,1678.644 762.907,1749.999 721.709,1821.354    717.324,1828.949 715.722,1831.724 724.492,1831.724 726.095,1828.949  " />
	<polygon style="fill:#BFA07B;" points="577.368,1913.456 578.971,1910.679 575.764,1910.679  " />
	<polygon style="fill:#BFA07B;" points="720.106,1839.321 711.336,1839.321 670.137,1910.679 587.741,1910.679 583.355,1918.276    674.521,1918.276  " />
	<polygon style="fill:#BFA07B;" points="431.423,1839.321 422.653,1839.321 381.453,1910.679 299.057,1910.679 294.671,1918.276    385.838,1918.276  " />
	<polygon style="fill:#BFA07B;" points="282.697,1918.276 278.311,1910.679 195.914,1910.679 154.715,1839.321 145.945,1839.321    191.53,1918.276  " />
	<polygon style="fill:#BFA07B;" points="288.684,1913.456 290.287,1910.679 287.081,1910.679  " />
	<polygon style="fill:#BFA07B;" points="147.125,1831.724 150.329,1831.724 148.727,1828.949  " />
	<polygon style="fill:#BFA07B;" points="103.145,1749.999 144.342,1678.644 139.957,1671.049 94.376,1749.999 139.957,1828.949    144.342,1821.354  " />
	<polygon style="fill:#BFA07B;" points="482.992,1749.999 437.411,1671.049 433.026,1663.454 431.423,1660.679 385.838,1581.722    191.53,1581.722 145.945,1660.679 144.342,1663.454 148.727,1671.049 150.328,1668.277 154.714,1660.679 195.914,1589.319    381.453,1589.319 422.653,1660.679 427.04,1668.277 428.641,1671.049 433.026,1678.644 474.223,1749.999 433.026,1821.354    428.641,1828.949 427.039,1831.724 435.809,1831.724 437.411,1828.949  " />
	<polygon style="fill:#BFA07B;" points="142.739,1839.321 133.969,1839.321 92.77,1910.679 10.374,1910.679 5.987,1918.276    97.154,1918.276  " />
	<polygon style="fill:#BFA07B;" points="1.604,1910.679 0,1910.679 0,1913.455  " />
	<polygon style="fill:#BFA07B;" points="92.77,1589.319 133.97,1660.679 138.356,1668.277 139.957,1671.049 144.342,1678.644    185.539,1749.999 144.342,1821.354 139.957,1828.949 138.355,1831.724 147.125,1831.724 148.727,1828.949 194.308,1749.999    148.727,1671.049 144.342,1663.454 142.74,1660.679 97.154,1581.722 0,1581.722 0,1589.319  " />
	<polygon style="fill:#BFA07B;" points="2259.503,2000 2268.272,2000 2309.469,1928.647 2305.084,1921.051  " />
	<polygon style="fill:#BFA07B;" points="2016.4,1921.051 1970.82,2000 1979.589,2000 2020.786,1928.646  " />
	<polygon style="fill:#BFA07B;" points="2262.281,1831.724 2067.974,1831.724 2022.389,1910.679 2020.786,1913.456    2025.171,1921.051 2026.773,1918.276 2031.159,1910.679 2072.358,1839.321 2257.897,1839.321 2299.096,1910.679 2303.482,1918.276    2305.084,1921.051 2309.469,1928.645 2309.469,1913.455 2307.866,1910.679  " />
	<polygon style="fill:#BFA07B;" points="1727.717,1921.051 1682.136,2000 1690.905,2000 1732.102,1928.646  " />
	<polygon style="fill:#BFA07B;" points="2020.786,1913.456 2019.182,1910.679 1973.598,1831.724 1779.29,1831.724    1733.705,1910.679 1732.102,1913.456 1736.487,1921.051 1738.089,1918.276 1742.475,1910.679 1783.674,1839.321 1969.213,1839.321    2010.412,1910.679 2014.798,1918.276 2016.4,1921.051 2020.786,1928.646 2061.982,2000 2070.751,2000 2025.171,1921.051  " />
	<polygon style="fill:#BFA07B;" points="1439.033,1921.051 1393.453,2000 1402.222,2000 1443.418,1928.646  " />
	<polygon style="fill:#BFA07B;" points="1732.102,1913.456 1730.499,1910.679 1684.914,1831.724 1490.606,1831.724    1445.022,1910.679 1443.418,1913.456 1447.804,1921.051 1449.405,1918.276 1453.792,1910.679 1494.991,1839.321 1680.53,1839.321    1721.729,1910.679 1726.115,1918.276 1727.717,1921.051 1732.102,1928.646 1773.299,2000 1782.068,2000 1736.487,1921.051  " />
	<polygon style="fill:#BFA07B;" points="1150.35,1921.051 1104.769,2000 1113.538,2000 1154.735,1928.646  " />
	<polygon style="fill:#BFA07B;" points="1443.418,1913.456 1441.815,1910.679 1396.23,1831.724 1201.923,1831.724    1156.338,1910.679 1154.735,1913.456 1159.12,1921.051 1160.722,1918.276 1165.108,1910.679 1206.307,1839.321 1391.846,1839.321    1433.045,1910.679 1437.431,1918.276 1439.033,1921.051 1443.418,1928.646 1484.615,2000 1493.384,2000 1447.804,1921.051  " />
	<polygon style="fill:#BFA07B;" points="861.666,1921.051 816.085,2000 824.854,2000 866.051,1928.646  " />
	<polygon style="fill:#BFA07B;" points="1154.735,1913.456 1153.132,1910.679 1107.547,1831.724 913.239,1831.724 867.654,1910.679    866.051,1913.456 870.436,1921.051 872.038,1918.276 876.424,1910.679 917.623,1839.321 1103.162,1839.321 1144.362,1910.679    1148.748,1918.276 1150.35,1921.051 1154.735,1928.646 1195.932,2000 1204.701,2000 1159.12,1921.051  " />
	<polygon style="fill:#BFA07B;" points="572.982,1921.051 527.402,2000 536.171,2000 577.368,1928.646  " />
	<polygon style="fill:#BFA07B;" points="866.051,1913.456 864.448,1910.679 818.863,1831.724 624.556,1831.724 578.971,1910.679    577.368,1913.456 581.753,1921.051 583.355,1918.276 587.741,1910.679 628.94,1839.321 814.479,1839.321 855.678,1910.679    860.064,1918.276 861.666,1921.051 866.051,1928.646 907.248,2000 916.017,2000 870.436,1921.051  " />
	<polygon style="fill:#BFA07B;" points="284.299,1921.051 238.718,2000 247.487,2000 288.684,1928.646  " />
	<polygon style="fill:#BFA07B;" points="577.368,1913.456 575.764,1910.679 530.18,1831.724 335.872,1831.724 290.287,1910.679    288.684,1913.456 293.069,1921.051 294.671,1918.276 299.057,1910.679 340.256,1839.321 525.795,1839.321 566.994,1910.679    571.38,1918.276 572.982,1921.051 577.368,1928.646 618.564,2000 627.333,2000 581.753,1921.051  " />
	<polygon style="fill:#BFA07B;" points="288.684,1913.456 287.081,1910.679 241.496,1831.724 47.188,1831.724 1.604,1910.679    0,1913.456 4.386,1921.051 5.987,1918.276 10.374,1910.679 51.573,1839.321 237.112,1839.321 278.311,1910.679 282.697,1918.276    284.299,1921.051 288.684,1928.646 329.881,2000 338.65,2000 293.069,1921.051  " />
	<polygon style="fill:#BFA07B;" points="0,1913.456 0,1928.645 41.197,2000 49.966,2000 4.386,1921.051  " />
</g>
</svg>