<svg xmlns="http://www.w3.org/2000/svg"  viewBox="0 0 64 64" width="512px" height="512px"><path d="M58.16,17.07c-.96-.7-1.58-1.11-2.16-1.72v-3.34c0-.55-.45-1-1-1s-1,.45-1,1v3.34c-.58,.62-1.21,1.02-2.16,1.72-1.75,1.29-2.25,3.05-1.5,4.93h.66v14h-5v-4h-2.09c1.91-4,.66-7.74-3.83-10.48-3.32-2.03-5.08-2.87-7.13-5.3,.02-.07,.04-.14,.04-.21v-5.16c1.38-.41,2.41-1.65,2.49-3.15-.36,.19-.76,.31-1.2,.31-1.41,0-2.56-1.15-2.56-2.56,0-.53,.16-1.02,.43-1.43-.05,0-.1-.02-.16-.02-1.93,0-3.5,1.57-3.5,3.5,0,1.58,1.05,2.9,2.49,3.33v5.17c0,.08,.03,.14,.04,.21-2.06,2.43-3.82,3.28-7.13,5.3-4.49,2.74-5.74,6.48-3.83,10.48h-2.09v4h-5v-14h.66c.75-1.88,.26-3.64-1.5-4.93-.96-.7-1.58-1.11-2.16-1.72v-3.34c0-.55-.45-1-1-1s-1,.45-1,1v3.34c-.58,.62-1.21,1.02-2.16,1.72-1.75,1.29-2.25,3.05-1.5,4.93h.66V60H27v-7c0-2.76,2.24-5,5-5s5,2.24,5,5v7h22V22h.66c.75-1.88,.26-3.64-1.5-4.93Zm-15.16,22.93v4h-4v-4h4Zm-18,0v4h-4v-4h4Zm9,4h-4v-4h4v4Z"/></svg>